<mxfile host="app.diagrams.net" modified="2024-03-18T18:42:02.531Z" agent="Mozilla/5.0 (Windows NT 10.0; Win64; x64) AppleWebKit/537.36 (KHTML, like Gecko) Chrome/122.0.0.0 Safari/537.36" version="23.0.1" etag="poeDVBfE4mIl4ow3SBHJ" type="github">
  <diagram name="Page-1" id="c9E0UJxDKBGvKuo4ORId">
    <mxGraphModel>
      <root>
        <mxCell id="0" />
        <mxCell id="1" parent="0" />
      </root>
    </mxGraphModel>
  </diagram>
</mxfile>
